<svg xmlns="http://www.w3.org/2000/svg" viewBox="0 0 900 600" role="img" aria-labelledby="title desc">
  <title id="title">Сансевиерия</title>
  <desc id="desc">Декоративная иллюстрация сансевиерии в горшке.</desc>
  <defs>
    <linearGradient id="bg" x1="0" x2="1" y1="0" y2="1">
      <stop offset="0" stop-color="#d7f2d4"/>
      <stop offset="1" stop-color="#f6f0d5"/>
    </linearGradient>
    <linearGradient id="leaf" x1="0" x2="1">
      <stop offset="0" stop-color="#1f6f43"/>
      <stop offset="1" stop-color="#4f9a4d"/>
    </linearGradient>
    <linearGradient id="pot" x1="0" x2="1">
      <stop offset="0" stop-color="#a75d38"/>
      <stop offset="1" stop-color="#df8f55"/>
    </linearGradient>
  </defs>
  <rect width="900" height="600" rx="42" fill="url(#bg)"/>
  <ellipse cx="450" cy="514" rx="230" ry="34" fill="#000" opacity=".12"/>
  <path d="M316 366h268l-38 154H354z" fill="url(#pot)"/>
  <path d="M292 346c0-24 19-43 43-43h230c24 0 43 19 43 43v18H292z" fill="#c97445"/>
  <path d="M321 372h258" stroke="#7a3f28" stroke-width="12" stroke-linecap="round" opacity=".25"/>
  <g stroke="#e4f0a4" stroke-width="8" stroke-linecap="round">
    <path d="M431 323C390 244 384 157 410 80c62 55 84 151 61 261z" fill="url(#leaf)" stroke="#2c7b45"/>
    <path d="M495 330c-12-97 14-188 69-249 30 79 16 178-40 267z" fill="url(#leaf)" stroke="#2c7b45"/>
    <path d="M374 339c-65-64-95-147-83-226 70 39 118 121 119 234z" fill="url(#leaf)" stroke="#2c7b45"/>
    <path d="M540 350c18-88 70-159 139-192 6 82-38 166-109 209z" fill="url(#leaf)" stroke="#2c7b45"/>
    <path d="M453 346c-2-112 37-214 103-281 22 96-6 208-67 296z" fill="url(#leaf)" stroke="#2c7b45"/>
    <path d="M414 90c11 69 21 144 40 225"/>
    <path d="M558 91c-33 79-49 157-58 234"/>
    <path d="M297 126c47 70 78 142 94 214"/>
    <path d="M674 170c-55 65-91 124-116 174"/>
  </g>
  <circle cx="704" cy="112" r="44" fill="#fff4bd" opacity=".65"/>
</svg>
